#!OML:ASF E:\acrobat2\Project_11_07_03\Capture day 1\Session 1\Acrobat.ASF
:FULLY-SPECIFIED
:DEGREES
521
root 5.55136 8.83327 3.71751 -30.1526 17.5089 -10.1497
lowerback 25.8952 -2.59827 3.33901
upperback 8.57132 -2.24099 2.17896
thorax -4.87527 -1.04125 1.11705
lowerneck -9.39559 -3.88138 -0.276635
upperneck 0.065367 -5.22882 3.38384
head 1.72306 -2.51767 0.887199
rclavicle -1.08089e-015 2.14687e-014
rhumerus 32.7395 -11.8832 -27.5012
rradius 38.5689
rwrist -16.9331
rhand -7.70002 -28.0162
rfingers 7.12502
rthumb 18.1975 -57.185
lclavicle -1.08089e-015 2.14687e-014
lhumerus 45.8991 3.3112 26.9031
lradius 40.2796
lwrist 30.3062
lhand -35.8037 -23.6053
lfingers 7.12502
lthumb -8.92039 6.18616
rfemur -83.5096 -12.2125 17.7931
rtibia 68.9468
rfoot -189.321 5.18779
rtoes 2.281
lfemur -50.9799 -0.912091 -12.484
ltibia 37.0593
lfoot -178.766 1.36416
ltoes 33.9608
522
root 5.56716 8.9452 3.78867 -30.6559 16.4764 -9.90732
lowerback 25.2065 -2.6704 3.759
upperback 8.57818 -2.27469 2.2926
thorax -4.54063 -1.0576 0.985013
lowerneck -8.75984 -3.55235 -0.707879
upperneck 0.795101 -4.75619 3.04847
head 1.84243 -2.29166 0.881166
rclavicle -9.87711e-016 1.41137e-014
rhumerus 33.8735 -6.41865 -24.7243
rradius 40.9297
rwrist -14.3597
rhand -6.98792 -27.1337
rfingers 7.12502
rthumb 18.8824 -56.2372
lclavicle -9.87711e-016 1.41137e-014
lhumerus 45.6028 1.63398 25.6531
lradius 42.7081
lwrist 28.9533
lhand -35.9659 -24.2505
lfingers 7.12502
lthumb -9.07694 5.53422
rfemur -82.7351 -12.0784 18.4979
rtibia 65.5786
rfoot -189.679 5.75958
rtoes 3.09267
lfemur -50.2608 -0.173855 -11.7265
ltibia 37.9502
lfoot -175.793 -0.717706
ltoes 36.8608
523
root 5.58031 9.05269 3.86015 -31.1691 15.6896 -9.48093
lowerback 24.5824 -2.73423 4.0244
upperback 8.61384 -2.3454 2.26594
thorax -4.2063 -1.08991 0.80001
lowerneck -8.27575 -3.3273 -0.83802
upperneck 1.65467 -4.44391 2.4473
head 2.01774 -2.15095 0.72853
rclavicle 2.489e-014 1.43125e-014
rhumerus 35.1566 -1.51911 -22.1903
rradius 43.4748
rwrist -12.0083
rhand -6.86956 -26.6118
rfingers 7.12502
rthumb 18.9963 -55.7041
lclavicle 2.489e-014 1.43125e-014
lhumerus 45.6725 -0.00485184 24.3986
lradius 45.0293
lwrist 27.6187
lhand -35.8917 -25.3237
lfingers 7.12502
lthumb -9.00529 4.4641
rfemur -81.7809 -12.1797 18.9285
rtibia 62.1605
rfoot -190.2 6.55781
rtoes 3.21596
lfemur -49.7392 0.361151 -11.1171
ltibia 38.6607
lfoot -172.749 -2.49572
ltoes 39.2957
524
root 5.58689 9.15596 3.93091 -31.7434 14.9258 -9.01334
lowerback 24.0001 -2.72375 4.25842
upperback 8.72784 -2.33228 2.18636
thorax -3.80559 -1.07737 0.552084
lowerneck -7.84587 -3.19255 -0.734022
upperneck 2.43232 -4.26398 1.79586
head 2.17253 -2.07768 0.513338
rclavicle 1.06086e-014 -1.30204e-014
rhumerus 36.5645 2.72205 -19.9138
rradius 46.0074
rwrist -9.84038
rhand -6.55793 -25.9229
rfingers 7.12502
rthumb 19.2959 -54.9856
lclavicle 1.06086e-014 -1.30204e-014
lhumerus 46.1945 -1.47296 23.4167
lradius 47.2542
lwrist 26.0607
lhand -35.333 -26.6102
lfingers 7.12502
lthumb -8.46611 3.20011
rfemur -80.5458 -12.2711 19.2831
rtibia 58.842
rfoot -190.707 7.29746
rtoes 3.44433
lfemur -49.3987 0.903907 -10.389
ltibia 39.2387
lfoot -169.25 -3.87498
ltoes 41.6338
525
root 5.58996 9.25057 3.99804 -32.3057 14.1725 -8.34826
lowerback 23.4943 -2.63209 4.30541
upperback 8.89035 -2.25792 2.03094
thorax -3.38485 -1.03399 0.31523
lowerneck -7.30792 -2.97524 -0.552757
upperneck 3.01464 -3.97956 1.30417
head 2.2465 -1.94894 0.342809
rclavicle -2.30792e-014 -2.61402e-014
rhumerus 38.1903 6.47282 -17.8662
rradius 48.3964
rwrist -7.83709
rhand -6.44399 -24.913
rfingers 7.12502
rthumb 19.4055 -53.9647
lclavicle -2.30792e-014 -2.61402e-014
lhumerus 47.0507 -2.58402 23.2288
lradius 49.2408
lwrist 23.6487
lhand -34.5918 -27.858
lfingers 7.12502
lthumb -7.75083 1.9799
rfemur -79.1387 -12.3177 19.4046
rtibia 55.6166
rfoot -191.183 7.91149
rtoes 3.87793
lfemur -49.2195 1.54797 -9.71387
ltibia 39.8518
lfoot -165.501 -4.9654
ltoes 43.3214
526
root 5.58799 9.33617 4.05917 -32.9433 13.5965 -7.51206
lowerback 23.2858 -2.518 4.13149
upperback 9.01799 -2.18468 1.77981
thorax -3.14621 -0.994688 0.114141
lowerneck -6.78029 -2.7446 -0.244091
upperneck 3.58953 -3.6824 0.79444
head 2.31928 -1.81228 0.144527
rclavicle 1.36338e-014 6.26172e-015
rhumerus 39.7619 9.88165 -16.1855
rradius 50.8386
rwrist -5.8584
rhand -6.94527 -23.9033
rfingers 7.12502
rthumb 18.9235 -53.0027
lclavicle 1.36338e-014 6.26172e-015
lhumerus 48.0246 -3.78144 23.0955
lradius 51.2092
lwrist 20.6934
lhand -33.9804 -28.3369
lfingers 7.12502
lthumb -7.16066 1.52191
rfemur -77.4829 -12.4972 19.2222
rtibia 52.5412
rfoot -191.447 8.5554
rtoes 4.12099
lfemur -49.0467 2.08781 -9.31787
ltibia 40.2961
lfoot -162.614 -4.84913
ltoes 43.316
527
root 5.58225 9.4172 4.11128 -33.6356 13.1929 -6.5886
lowerback 23.3226 -2.44548 3.75844
upperback 9.11676 -2.19027 1.52974
thorax -3.0564 -1.0001 0.0570176
lowerneck -6.10299 -2.52597 -0.322252
upperneck 4.04272 -3.38126 0.646891
head 2.3422 -1.66881 0.129456
rclavicle 2.29204e-015 1.29769e-014
rhumerus 41.5271 13.0292 -14.8103
rradius 53.2946
rwrist -3.93499
rhand -7.29813 -22.7419
rfingers 7.12502
rthumb 18.5841 -51.8742
lclavicle 2.29204e-015 1.29769e-014
lhumerus 48.7838 -5.11533 22.4103
lradius 53.4432
lwrist 18.0875
lhand -33.7355 -28.5446
lfingers 7.12502
lthumb -6.92423 1.3222
rfemur -75.535 -12.7945 18.7378
rtibia 49.713
rfoot -191.192 8.95284
rtoes 4.6148
lfemur -48.923 2.5361 -9.34075
ltibia 40.3691
lfoot -160.831 -3.09435
ltoes 43.5389
528
root 5.57622 9.49038 4.15739 -34.2629 12.9574 -5.52914
lowerback 23.3056 -2.34044 3.13372
upperback 9.31283 -2.20933 1.32311
thorax -2.82459 -1.01634 0.189025
lowerneck -5.52833 -2.36012 -0.64238
upperneck 4.44487 -3.13779 0.621907
head 2.37432 -1.5545 0.190317
rclavicle 6.50709e-015 1.02871e-014
rhumerus 43.6166 15.7608 -13.3889
rradius 55.5665
rwrist -2.20051
rhand -7.43237 -21.8082
rfingers 7.12502
rthumb 18.4549 -50.9528
lclavicle 6.50709e-015 1.02871e-014
lhumerus 49.6372 -6.19546 22.0391
lradius 55.6306
lwrist 15.62
lhand -33.5219 -29.6644
lfingers 7.12502
lthumb -6.71804 0.208979
rfemur -73.5003 -13.1863 17.9379
rtibia 46.968
rfoot -190.719 9.14698
rtoes 5.70229
lfemur -48.9918 2.95898 -9.83019
ltibia 40.4491
lfoot -162.544 -0.156142
ltoes 37.9838
529
root 5.56653 9.54882 4.20063 -34.9331 12.5952 -4.65469
lowerback 23.1551 -2.13395 2.72526
upperback 9.699 -2.05181 1.17957
thorax -2.32005 -0.938435 0.214592
lowerneck -5.42656 -2.34603 -0.474592
upperneck 4.94299 -3.10856 0.166032
head 2.50972 -1.55072 0.015573
rclavicle 3.48556e-014 -4.56211e-014
rhumerus 45.4712 17.9274 -12.1128
rradius 57.8761
rwrist -0.653236
rhand -7.80609 -21.2888
rfingers 7.12502
rthumb 18.0954 -50.4671
lclavicle 3.48556e-014 -4.56211e-014
lhumerus 50.9136 -7.10678 21.8527
lradius 57.8664
lwrist 13.253
lhand -33.0823 -30.7264
lfingers 7.12502
lthumb -6.29365 -0.83992
rfemur -71.3988 -13.4796 17.448
rtibia 44.3044
rfoot -190.107 9.54796
rtoes 6.45077
lfemur -49.2933 3.68082 -10.2514
ltibia 41.0961
lfoot -165.999 1.569
ltoes 28.9742
530
root 5.55222 9.59414 4.23736 -35.6264 12.0251 -4.20277
lowerback 23.0498 -1.99539 2.81909
upperback 10.0656 -1.86817 1.10504
thorax -1.86955 -0.836475 0.0271664
lowerneck -5.37341 -2.36501 -0.201254
upperneck 5.30373 -3.13095 -0.247516
head 2.6084 -1.56963 -0.166207
rclavicle 1.31881e-014 1.98785e-016
rhumerus 47.1254 19.899 -11.2451
rradius 60.3582
rwrist 0.882087
rhand -8.30237 -20.649
rfingers 7.12502
rthumb 17.6179 -49.8708
lclavicle 1.31881e-014 1.98785e-016
lhumerus 52.2647 -8.04898 21.4041
lradius 60.2504
lwrist 11.1483
lhand -32.6571 -31.2841
lfingers 7.12502
lthumb -5.8832 -1.38573
rfemur -69.22 -13.6546 17.4647
rtibia 41.9816
rfoot -189.085 10.0418
rtoes 6.63254
lfemur -50.0192 4.76 -10.2002
ltibia 42.5251
lfoot -169.83 0.687659
ltoes 21.9036
531
root 5.53551 9.63009 4.265 -36.1159 11.5711 -3.82113
lowerback 23.2236 -1.93743 2.93752
upperback 10.1233 -1.76653 1.04205
thorax -1.89421 -0.780948 -0.128387
lowerneck -5.20251 -2.30369 -0.194238
upperneck 5.64924 -3.04332 -0.353246
head 2.69079 -1.52938 -0.198614
rclavicle -1.27719e-014 -7.55382e-015
rhumerus 48.7983 22.0755 -10.5388
rradius 62.7203
rwrist 2.44941
rhand -8.62362 -19.9194
rfingers 7.12502
rthumb 17.3087 -49.1686
lclavicle -1.27719e-014 -7.55382e-015
lhumerus 53.4839 -9.21786 20.9511
lradius 62.599
lwrist 9.05981
lhand -32.2334 -31.7213
lfingers 7.12502
lthumb -5.4741 -1.81205
rfemur -67.2098 -13.9165 17.4427
rtibia 39.8877
rfoot -187.797 10.5041
rtoes 8.44911
lfemur -51.2583 5.79185 -10.1437
ltibia 44.4157
lfoot -173.113 -0.766215
ltoes 24.3263
532
root 5.51703 9.6533 4.28414 -36.2723 11.2413 -3.27381
lowerback 23.3542 -1.83683 2.80362
upperback 10.0759 -1.66232 0.997495
thorax -2.00633 -0.734009 -0.121705
lowerneck -5.12597 -2.19816 -0.335406
upperneck 5.91763 -2.88988 -0.372794
head 2.76914 -1.45697 -0.176104
rclavicle 2.60905e-016 -3.33958e-014
rhumerus 50.5668 24.1347 -9.79909
rradius 65.018
rwrist 3.95253
rhand -8.55173 -19.2
rfingers 7.12502
rthumb 17.3779 -48.4431
lclavicle 2.60905e-016 -3.33958e-014
lhumerus 54.6327 -10.3349 20.4215
lradius 64.9891
lwrist 6.96613
lhand -31.6654 -31.8273
lfingers 7.12502
lthumb -4.92568 -1.90458
rfemur -65.5862 -14.1988 17.3294
rtibia 37.7746
rfoot -186.554 11.0601
rtoes 11.9604
lfemur -52.941 6.76147 -10.4839
ltibia 46.1959
lfoot -175.912 -1.43832
ltoes 25.5158
533
root 5.4988 9.667 4.2984 -36.241 10.8948 -2.71525
lowerback 23.1744 -1.76341 2.6812
upperback 10.1847 -1.6077 0.944275
thorax -1.79731 -0.707671 -0.128377
lowerneck -5.30204 -2.10656 -0.706841
upperneck 6.10149 -2.74563 -0.236181
head 2.87276 -1.38928 -0.0665468
rclavicle 5.8393e-015 -2.34566e-014
rhumerus 52.587 25.8216 -9.00818
rradius 67.345
rwrist 5.52986
rhand -8.48903 -18.7025
rfingers 7.12502
rthumb 17.4382 -47.9403
lclavicle 5.8393e-015 -2.34566e-014
lhumerus 55.9335 -11.1076 19.8308
lradius 67.3509
lwrist 5.01808
lhand -30.6791 -31.7661
lfingers 7.12502
lthumb -3.97327 -1.82339
rfemur -64.1194 -14.4111 17.2864
rtibia 35.8309
rfoot -185.392 11.7183
rtoes 14.4882
lfemur -54.802 7.71441 -10.9293
ltibia 48.7456
lfoot -177.237 -1.61169
ltoes 22.8276
534
root 5.48237 9.67708 4.30964 -36.2875 10.5971 -2.23748
lowerback 23.5197 -1.67006 2.678
upperback 9.82826 -1.47363 0.866426
thorax -2.35568 -0.647593 -0.230468
lowerneck -4.83562 -2.11294 -0.772692
upperneck 6.53548 -2.74653 -0.322142
head 2.93174 -1.39518 -0.0804727
rclavicle -2.60905e-015 3.18055e-015
rhumerus 54.2132 28.1729 -8.43306
rradius 69.7521
rwrist 7.30901
rhand -8.6202 -18.5413
rfingers 7.12502
rthumb 17.312 -47.7903
lclavicle -2.60905e-015 3.18055e-015
lhumerus 57.264 -12.6706 19.2626
lradius 69.7985
lwrist 3.31767
lhand -29.8889 -31.6731
lfingers 7.12502
lthumb -3.21015 -1.71756
rfemur -62.4417 -14.6519 17.1287
rtibia 34.2818
rfoot -184.285 12.3577
rtoes 16.7942
lfemur -56.5206 8.48451 -11.3395
ltibia 51.6436
lfoot -177.952 -1.25746
ltoes 20.5639
